<svg width="159" height="37" viewBox="0 0 159 37" fill="none" xmlns="http://www.w3.org/2000/svg">
<path d="M10.7391 2.7204C14.7753 2.7204 17.9001 3.84012 20.1135 6.07956C22.3269 8.29296 23.4336 11.4698 23.4336 15.6102C23.4336 19.7245 22.3269 22.9014 20.1135 25.1408C17.9001 27.3803 14.7753 28.5 10.7391 28.5H0.778838V2.7204H10.7391ZM10.4657 24.2034C12.9135 24.2034 14.7493 23.4743 15.9732 22.016C17.2231 20.5318 17.8481 18.3965 17.8481 15.6102C17.8481 12.8239 17.2231 10.7017 15.9732 9.24342C14.7493 7.75914 12.9135 7.017 10.4657 7.017H6.16912V24.2034H10.4657ZM30.8871 6.15768C29.7674 6.15768 28.9341 5.92332 28.3872 5.4546C27.8404 4.95984 27.567 4.24374 27.567 3.3063C27.567 2.34282 27.8404 1.62672 28.3872 1.158C28.9341 0.663237 29.7674 0.415857 30.8871 0.415857C32.0068 0.415857 32.8401 0.663237 33.3869 1.158C33.9338 1.62672 34.2072 2.34282 34.2072 3.3063C34.2072 4.24374 33.9338 4.95984 33.3869 5.4546C32.8401 5.92332 32.0068 6.15768 30.8871 6.15768ZM33.5432 8.97V28.5H28.1919V8.97H33.5432ZM57.2224 4.32186L57.8473 8.14974C57.7432 8.14974 57.626 8.14974 57.4958 8.14974C57.3916 8.1237 57.2745 8.11068 57.1443 8.11068C55.9464 8.11068 55.048 8.3841 54.4491 8.93094C53.8502 9.45174 53.5507 10.1809 53.5507 11.1183L51.3634 10.2199C51.3634 9.17832 51.5717 8.21484 51.9883 7.32948C52.405 6.41808 53.0169 5.68896 53.8241 5.14212C54.6574 4.59528 55.647 4.32186 56.7927 4.32186C56.8448 4.32186 56.9099 4.32186 56.988 4.32186C57.0661 4.32186 57.1443 4.32186 57.2224 4.32186ZM50.8165 24.8284C52.9258 24.8284 54.5533 25.2841 55.699 26.1955C56.8448 27.1069 57.4177 28.3828 57.4177 30.0233C57.4177 31.5076 56.988 32.7575 56.1287 33.7731C55.2694 34.8147 54.0585 35.5959 52.4961 36.1167C50.9598 36.6375 49.176 36.8979 47.1449 36.8979C43.7857 36.8979 41.3249 36.4292 39.7625 35.4917C38.2262 34.5543 37.458 33.3304 37.458 31.8201C37.458 30.7525 37.8616 29.8541 38.6689 29.125C39.5021 28.3958 40.8692 27.9922 42.7702 27.9141L42.5749 28.5391C41.2208 28.3047 40.1792 27.862 39.4501 27.211C38.747 26.534 38.3954 25.6096 38.3954 24.4378C38.3954 23.2399 38.8511 22.2634 39.7625 21.5083C40.7 20.7271 41.9629 20.2714 43.5514 20.1412L45.895 21.2348H45.3481C44.2284 21.313 43.4342 21.5473 42.9655 21.9379C42.5228 22.3025 42.3014 22.7191 42.3014 23.1878C42.3014 23.7347 42.5098 24.1513 42.9264 24.4378C43.3691 24.6982 43.994 24.8284 44.8013 24.8284H50.8165ZM47.184 33.2263C48.538 33.2263 49.6447 33.1091 50.5041 32.8747C51.3894 32.6404 52.0404 32.3409 52.4571 31.9763C52.8997 31.6118 53.1211 31.2082 53.1211 30.7655C53.1211 30.2707 52.9258 29.8671 52.5352 29.5546C52.1446 29.2682 51.4415 29.125 50.4259 29.125H43.8248C43.1998 29.125 42.679 29.2812 42.2624 29.5937C41.8718 29.9062 41.6765 30.3358 41.6765 30.8827C41.6765 31.6118 42.1582 32.1847 43.1217 32.6013C44.1112 33.0179 45.4653 33.2263 47.184 33.2263ZM47.223 8.5794C49.0458 8.5794 50.6212 8.85282 51.9493 9.39966C53.3034 9.92046 54.3319 10.6756 55.035 11.6651C55.7641 12.6547 56.1287 13.8395 56.1287 15.2196C56.1287 16.5737 55.7641 17.7455 55.035 18.735C54.3319 19.7245 53.3034 20.4927 51.9493 21.0395C50.6212 21.5603 49.0458 21.8207 47.223 21.8207C44.3326 21.8207 42.1192 21.2348 40.5828 20.063C39.0725 18.8652 38.3173 17.2507 38.3173 15.2196C38.3173 13.8395 38.6689 12.6547 39.3719 11.6651C40.1011 10.6756 41.1296 9.92046 42.4577 9.39966C43.7857 8.85282 45.3742 8.5794 47.223 8.5794ZM47.223 11.9386C46.1814 11.9386 45.3221 12.225 44.645 12.7979C43.968 13.3708 43.6295 14.165 43.6295 15.1805C43.6295 16.1961 43.968 17.0033 44.645 17.6023C45.3221 18.1751 46.1814 18.4616 47.223 18.4616C48.2646 18.4616 49.1109 18.1751 49.7619 17.6023C50.439 17.0033 50.7775 16.1961 50.7775 15.1805C50.7775 14.165 50.439 13.3708 49.7619 12.7979C49.1109 12.225 48.2646 11.9386 47.223 11.9386ZM63.3481 6.15768C62.2284 6.15768 61.3951 5.92332 60.8482 5.4546C60.3014 4.95984 60.028 4.24374 60.028 3.3063C60.028 2.34282 60.3014 1.62672 60.8482 1.158C61.3951 0.663237 62.2284 0.415857 63.3481 0.415857C64.4678 0.415857 65.3011 0.663237 65.8479 1.158C66.3948 1.62672 66.6682 2.34282 66.6682 3.3063C66.6682 4.24374 66.3948 4.95984 65.8479 5.4546C65.3011 5.92332 64.4678 6.15768 63.3481 6.15768ZM66.0042 8.97V28.5H60.6529V8.97H66.0042Z" fill="#FF5300"/>
<path d="M80.7386 28.8906C78.6815 28.8906 76.8847 28.487 75.3483 27.6797C73.838 26.8725 72.6662 25.7137 71.8329 24.2034C70.9997 22.6931 70.583 20.8703 70.583 18.735C70.583 16.5997 70.9997 14.7769 71.8329 13.2666C72.6662 11.7563 73.825 10.5975 75.3093 9.79026C76.8196 8.98302 78.5382 8.5794 80.4652 8.5794C82.4442 8.5794 84.1238 8.98302 85.5039 9.79026C86.8841 10.5715 87.9387 11.6521 88.6678 13.0322C89.3969 14.3863 89.7615 15.9357 89.7615 17.6804C89.7615 18.2012 89.7485 18.6959 89.7224 19.1647C89.6964 19.6334 89.6573 20.05 89.6052 20.4146H74.0203V16.7039H87.2616L84.6837 17.6413C84.6837 16.0008 84.3061 14.7379 83.5509 13.8525C82.8218 12.9671 81.7802 12.5245 80.4261 12.5245C79.4366 12.5245 78.5773 12.7588 77.8482 13.2275C77.1451 13.6963 76.6113 14.3993 76.2467 15.3368C75.8822 16.2482 75.6999 17.407 75.6999 18.8131C75.6999 20.1932 75.8952 21.339 76.2858 22.2504C76.7024 23.1358 77.2753 23.7998 78.0044 24.2425C78.7596 24.6851 79.658 24.9065 80.6996 24.9065C81.8453 24.9065 82.7697 24.6851 83.4728 24.2425C84.1759 23.7998 84.7227 23.1878 85.1133 22.4066L89.3709 24.0472C88.9542 25.0627 88.3163 25.9351 87.4569 26.6642C86.6237 27.3933 85.6211 27.9532 84.4493 28.3438C83.3036 28.7083 82.0667 28.8906 80.7386 28.8906ZM94.2964 28.5V8.97H99.1008L99.4133 14.829L98.7493 14.204C99.0617 12.9281 99.5565 11.8735 100.234 11.0402C100.911 10.2069 101.731 9.59496 102.694 9.20436C103.684 8.78772 104.764 8.5794 105.936 8.5794C107.29 8.5794 108.488 8.8398 109.53 9.3606C110.597 9.8814 111.431 10.6756 112.03 11.7433C112.655 12.7849 112.967 14.0999 112.967 15.6883V28.5H107.616V17.2117C107.616 15.5451 107.29 14.3993 106.639 13.7744C105.988 13.1234 105.142 12.7979 104.1 12.7979C103.371 12.7979 102.655 12.9802 101.952 13.3447C101.275 13.6832 100.715 14.2431 100.273 15.0243C99.856 15.8055 99.6476 16.8471 99.6476 18.1491V28.5H94.2964ZM127.347 8.5794C129.091 8.5794 130.563 8.8398 131.76 9.3606C132.984 9.85536 133.961 10.5454 134.69 11.4308C135.445 12.2901 135.979 13.2536 136.291 14.3212L131.292 16.118C131.031 14.9462 130.589 14.0608 129.964 13.4619C129.339 12.863 128.492 12.5635 127.425 12.5635C126.435 12.5635 125.589 12.7979 124.886 13.2666C124.183 13.7093 123.649 14.3993 123.284 15.3368C122.92 16.2482 122.738 17.3939 122.738 18.7741C122.738 20.1542 122.92 21.2999 123.284 22.2113C123.675 23.1227 124.222 23.7998 124.925 24.2425C125.654 24.6851 126.5 24.9065 127.464 24.9065C128.245 24.9065 128.909 24.7763 129.456 24.5159C130.003 24.2294 130.445 23.8258 130.784 23.305C131.149 22.7842 131.396 22.1593 131.526 21.4301L136.37 22.9925C136.083 24.1643 135.549 25.1929 134.768 26.0783C133.987 26.9636 132.984 27.6537 131.76 28.1485C130.537 28.6432 129.117 28.8906 127.503 28.8906C125.498 28.8906 123.727 28.487 122.191 27.6797C120.654 26.8725 119.47 25.7137 118.636 24.2034C117.803 22.6931 117.386 20.8703 117.386 18.735C117.386 16.5997 117.803 14.7769 118.636 13.2666C119.47 11.7563 120.641 10.5975 122.152 9.79026C123.662 8.98302 125.394 8.5794 127.347 8.5794ZM158.428 8.97L150.538 29.7109C149.913 31.4816 149.21 32.8877 148.429 33.9293C147.674 34.9709 146.788 35.7261 145.773 36.1948C144.783 36.6635 143.598 36.8979 142.218 36.8979C141.203 36.8979 140.265 36.7677 139.406 36.5073C138.573 36.2729 137.843 35.9605 137.218 35.5699L138.351 31.7029C138.846 32.0935 139.367 32.3669 139.914 32.5232C140.46 32.7055 141.085 32.7966 141.788 32.7966C142.518 32.7966 143.143 32.6404 143.663 32.3279C144.21 32.0154 144.666 31.3904 145.03 30.453L145.694 28.7734L143.546 23.6956L137.57 8.97H143.507L147.218 20.688L148.233 24.594L149.444 20.4536L152.999 8.97H158.428Z" fill="#373737"/>
</svg>
